<svg xmlns="http://www.w3.org/2000/svg" width="115" height="115" fill="none"><g clip-path="url(#a)"><g filter="url(#b)"><rect width="90" height="90" x="14" y="14" fill="url(#c)" rx="15"/></g><g filter="url(#d)"><rect width="90" height="90" fill="url(#e)" rx="45"/></g><g filter="url(#f)"><path fill="url(#g)" d="M56.127 63.925c-1.177-4.392-1.765-6.588-1.183-8.105a5 5 0 0 1 2.876-2.876c1.517-.582 3.713.006 8.105 1.183l21.831 5.85c4.392 1.177 6.589 1.765 7.611 3.028a5 5 0 0 1 1.053 3.928c-.254 1.605-1.862 3.213-5.077 6.428L75.36 89.343c-3.215 3.215-4.823 4.823-6.428 5.077a5 5 0 0 1-3.928-1.053c-1.263-1.022-1.851-3.219-3.028-7.61l-5.85-21.832Z"/></g></g><defs><linearGradient id="c" x1="14" x2="104" y1="6" y2="104" gradientUnits="userSpaceOnUse"><stop stop-color="#3ACBD4"/><stop offset="1" stop-color="#2988B1"/></linearGradient><linearGradient id="e" x1="-9.5" x2="76.082" y1="-11" y2="90" gradientUnits="userSpaceOnUse"><stop stop-color="#95F0CF"/><stop offset="1" stop-color="#3AB9D5"/></linearGradient><linearGradient id="g" x1="54.662" x2="59.879" y1="49.345" y2="96.359" gradientUnits="userSpaceOnUse"><stop stop-color="#FFEB83"/><stop offset="0" stop-color="#FFEB83"/><stop offset=".083" stop-color="#FFDD35"/><stop offset=".602" stop-color="#FFBB13"/><stop offset="1" stop-color="#FFA800"/></linearGradient><filter id="b" width="110" height="110" x="8" y="8" color-interpolation-filters="sRGB" filterUnits="userSpaceOnUse"><feFlood flood-opacity="0" result="BackgroundImageFix"/><feColorMatrix in="SourceAlpha" values="0 0 0 0 0 0 0 0 0 0 0 0 0 0 0 0 0 0 127 0"/><feOffset dx="4" dy="4"/><feGaussianBlur stdDeviation="5"/><feColorMatrix values="0 0 0 0 0 0 0 0 0 0 0 0 0 0 0 0 0 0 0.1 0"/><feBlend in2="BackgroundImageFix" result="effect1_dropShadow"/><feBlend in="SourceGraphic" in2="effect1_dropShadow" result="shape"/></filter><filter id="d" width="110" height="110" x="-6" y="-6" color-interpolation-filters="sRGB" filterUnits="userSpaceOnUse"><feFlood flood-opacity="0" result="BackgroundImageFix"/><feColorMatrix in="SourceAlpha" values="0 0 0 0 0 0 0 0 0 0 0 0 0 0 0 0 0 0 127 0"/><feOffset dx="4" dy="4"/><feGaussianBlur stdDeviation="5"/><feColorMatrix values="0 0 0 0 0 0 0 0 0 0 0 0 0 0 0 0 0 0 0.1 0"/><feBlend in2="BackgroundImageFix" result="effect1_dropShadow"/><feBlend in="SourceGraphic" in2="effect1_dropShadow" result="shape"/></filter><filter id="f" width="77.661" height="77.661" x="34.883" y="32.883" color-interpolation-filters="sRGB" filterUnits="userSpaceOnUse"><feFlood flood-opacity="0" result="BackgroundImageFix"/><feColorMatrix in="SourceAlpha" values="0 0 0 0 0 0 0 0 0 0 0 0 0 0 0 0 0 0 127 0"/><feOffset dx="4" dy="4"/><feGaussianBlur stdDeviation="5"/><feColorMatrix values="0 0 0 0 0 0 0 0 0 0 0 0 0 0 0 0 0 0 0.1 0"/><feBlend in2="BackgroundImageFix" result="effect1_dropShadow"/><feBlend in="SourceGraphic" in2="effect1_dropShadow" result="shape"/></filter><clipPath id="a"><path fill="#fff" d="M0 0h115v115H0z"/></clipPath></defs></svg>