<svg xmlns="http://www.w3.org/2000/svg" xml:space="preserve" style="clip-rule:evenodd;fill-rule:evenodd;stroke-linejoin:round;stroke-miterlimit:1.41421" viewBox="0 0 331 200"><path d="M100.5 187 0 14h201L100.5 187Zm0-69L161 14H40l60.5 104Z" style="fill:#3ab982;fill-rule:nonzero" transform="matrix(-.66897 0 0 -.66897 232.731 143.67)"/><path d="M49.154 15.03h8.554L43.783 38.967 29.858 15.03h8.554l5.371 9.206 5.371-9.206Z" style="fill:#34495f;fill-rule:nonzero" transform="matrix(-2.90639 0 0 -2.90639 292.75 177.986)"/><path d="M115.088 290h-2.052l-3.216-8.496h2.304l1.968 6.024h.048l1.956-6.024h2.268L115.088 290ZM138.26 286.796c0 .512-.086.978-.258 1.398-.172.42-.418.78-.738 1.08-.32.3-.706.534-1.158.702a4.295 4.295 0 0 1-1.506.252c-.56 0-1.064-.084-1.512-.252a3.285 3.285 0 0 1-1.14-.702c-.312-.3-.552-.66-.72-1.08a3.733 3.733 0 0 1-.252-1.398v-5.292h2.04v5.124c0 .232.03.452.09.66.06.208.152.394.276.558.124.164.288.294.492.39.204.096.45.144.738.144s.534-.048.738-.144c.204-.096.37-.226.498-.39s.22-.35.276-.558c.056-.208.084-.428.084-.66v-5.124h2.052v5.292ZM151.916 290v-8.496h5.712v1.74h-3.732v1.596h3.528v1.644h-3.528v1.764h3.948V290h-5.928ZM178.676 288.824c-.376.432-.84.774-1.392 1.026-.552.252-1.188.378-1.908.378a4.978 4.978 0 0 1-1.818-.324 4.27 4.27 0 0 1-1.446-.918 4.251 4.251 0 0 1-.96-1.422 4.662 4.662 0 0 1-.348-1.824c0-.68.118-1.296.354-1.848a4.11 4.11 0 0 1 .978-1.41 4.332 4.332 0 0 1 1.464-.894 5.163 5.163 0 0 1 1.812-.312c.6 0 1.19.106 1.77.318.58.212 1.05.522 1.41.93l-1.392 1.392a1.723 1.723 0 0 0-.756-.588 2.507 2.507 0 0 0-.96-.192c-.36 0-.69.066-.99.198-.3.132-.558.314-.774.546a2.487 2.487 0 0 0-.504.822c-.12.316-.18.662-.18 1.038 0 .384.06.736.18 1.056.12.32.286.594.498.822.212.228.466.406.762.534s.62.192.972.192c.408 0 .764-.08 1.068-.24a2.07 2.07 0 0 0 .732-.624l1.428 1.344ZM200.264 285.716c0 .672-.116 1.286-.348 1.842a4.194 4.194 0 0 1-.966 1.428 4.298 4.298 0 0 1-1.47.918 5.157 5.157 0 0 1-1.848.324 5.108 5.108 0 0 1-1.842-.324 4.31 4.31 0 0 1-1.464-.918 4.194 4.194 0 0 1-.966-1.428 4.738 4.738 0 0 1-.348-1.842c0-.68.116-1.294.348-1.842a4.033 4.033 0 0 1 .966-1.398c.412-.384.9-.68 1.464-.888a5.284 5.284 0 0 1 1.842-.312c.664 0 1.28.104 1.848.312a4.292 4.292 0 0 1 1.47.888c.412.384.734.85.966 1.398.232.548.348 1.162.348 1.842Zm-2.196 0c0-.368-.06-.712-.18-1.032a2.459 2.459 0 0 0-.498-.822 2.299 2.299 0 0 0-.768-.54c-.3-.132-.63-.198-.99-.198s-.688.066-.984.198a2.382 2.382 0 0 0-.768.54 2.336 2.336 0 0 0-.498.822c-.116.32-.174.664-.174 1.032 0 .384.06.738.18 1.062.12.324.286.602.498.834.212.232.466.414.762.546.296.132.624.198.984.198s.688-.066.984-.198c.296-.132.552-.314.768-.546.216-.232.384-.51.504-.834.12-.324.18-.678.18-1.062ZM219.02 290l-3.42-5.556h-.036l.048 5.556h-1.992v-8.496h2.34l3.408 5.544h.036l-.048-5.544h1.992V290h-2.328ZM237.128 283.256v1.752h3.288v1.692h-3.288v3.3H235.1v-8.496h5.592v1.752h-3.564Z" style="fill:#fff;fill-rule:nonzero" transform="translate(-277.756 -555.446) scale(2.52919)"/><circle cx="1974.5" cy="1310.5" r="1.5" style="fill:#3ab982" transform="matrix(1.52625 0 0 1.52624 -2875.003 -1831.838)"/></svg>