<svg xmlns="http://www.w3.org/2000/svg" width="224" height="40" fill="#35495e" aria-labelledby="site-logo" class="logo"><path d="M36.603 20.173A10.085 10.085 0 1 0 27.245 6.31L23.593 0l-6.927 12.009 6.929 12.008 9.308-15.992h9.237L23.596 39.997 12.047 20 .5 40h46.187L35.182 20.068q.706.1 1.417.101zM86.67 31.66h-3.753V30.4c-.63 1.021-1.44 1.531-3.423 1.531-3.035 0-5.524-1.501-5.524-5.915V16.65h3.845v8.797c0 2.371.84 3.182 2.428 3.182 1.772 0 2.613-1.08 2.613-3.153V16.65h3.814zM121.677 10.946v3.573h-8.712v5.134h7.806v3.54h-7.806v8.467h-4.203V10.946zM144.012 20.884a3.25 3.25 0 0 0-2.942-1.201c-.991 0-1.891.303-1.891 1.17s.809 1.232 2.402 1.471c3.695.571 5.555 1.981 5.555 4.958 0 2.883-2.012 4.654-5.885 4.654-3.062 0-4.923-.75-6.214-2.492l2.942-2.101c.6.81 1.351 1.29 3.212 1.29 1.322 0 2.132-.45 2.132-1.23 0-.924-.66-1.232-2.551-1.531-3.123-.506-5.404-1.832-5.404-4.857 0-2.852 2.041-4.619 5.794-4.619 2.462 0 4.503.571 5.674 2.492zM156.499 26.888a3.45 3.45 0 0 0 2.822 1.501c2.012 0 3.092-1.08 3.092-4.683v-12.76h4.203v12.76c0 5.969-2.672 8.225-7.025 8.225a7.53 7.53 0 0 1-6.576-3.092zM65.028 24.87v.006l-4.536-13.93H55.9l7.235 20.715h3.812l.15-.427zM67.85 29.07l6.302-18.124H69.56L65.758 22.63zM100.391 23.405c0-4.563-1.951-7.025-6.185-7.025-3.902 0-6.184 2.192-6.184 6.726v2.041c0 3.873 2.16 6.785 6.664 6.785 2.702 0 4.444-.72 5.494-2.551l-2.852-1.982a2.68 2.68 0 0 1-2.672 1.291c-2.132 0-2.793-1.501-2.822-3.572v-2.732c.15-1.71.87-2.771 2.402-2.771 1.44 0 2.226.81 2.31 2.771H93.22v2.732h7.156zM134.526 23.405c0-4.563-1.952-7.025-6.185-7.025-3.902 0-6.185 2.192-6.185 6.726v2.041c0 3.873 2.161 6.785 6.665 6.785 2.702 0 4.443-.72 5.494-2.551l-2.85-1.983a2.68 2.68 0 0 1-2.672 1.291c-2.131 0-2.792-1.501-2.821-3.572v-2.732c.149-1.71.87-2.771 2.401-2.771 1.441 0 2.226.81 2.31 2.771h-3.327v2.732h7.172zM174.452 16.38c-3.092 0-4.773.661-5.884 2.492l2.702 1.891c.631-.99 1.351-1.2 2.822-1.2 2.161 0 2.672.54 2.672 2.225v4.263c0 2.043-.841 2.793-2.582 2.793-1.321 0-2.191-.54-2.191-1.681s.693-1.682 2.251-1.682h1.139v-2.826h-1.588c-3.153 0-5.555 1.386-5.555 4.563 0 3.063 2.161 4.714 5.283 4.714a3.27 3.27 0 0 0 3.238-1.591v1.321h3.753v-9.848c.008-4.292-2.191-5.434-6.06-5.434M214.231 17.911v-1.26h-3.845v15.01h3.845zM217.594 16.38a4.55 4.55 0 0 0-1.977.425v3.137a2.85 2.85 0 0 1 1.256-.261c1.561 0 2.402.84 2.402 3.182v8.796h3.813v-9.394c0-4.444-2.462-5.885-5.494-5.885M189.554 16.38a4.25 4.25 0 0 0-3.333 1.261v-.987h-3.845v20.711h3.845v-14.35c0-2.191.841-3.392 2.672-3.392 1.891 0 2.642 1.321 2.642 3.722v1.562c0 2.16-.571 3.782-2.642 3.782a2.84 2.84 0 0 1-1.286-.268v3.308a7.8 7.8 0 0 0 1.916.207c3.873 0 5.854-2.882 5.854-6.785v-2.046c0-4.293-2.345-6.725-5.823-6.725M202.463 16.38c-3.092 0-4.774.661-5.885 2.492l2.703 1.891c.63-.99 1.35-1.2 2.822-1.2 2.161 0 2.672.54 2.672 2.225v4.263c0 2.043-.841 2.793-2.582 2.793-1.322 0-2.192-.54-2.192-1.681s.693-1.682 2.251-1.682h1.137v-2.826h-1.587c-3.153 0-5.553 1.386-5.553 4.563 0 3.063 2.161 4.714 5.283 4.714a3.27 3.27 0 0 0 3.238-1.591v1.321h3.761v-9.848c-.004-4.292-2.195-5.434-6.068-5.434"/></svg>